<?xml version="1.0" encoding="UTF-8" standalone="no"?>
<svg
   width="144"
   height="144"
   version="1.1"
   id="svg48502"
   sodipodi:docname="menu_icon"
   inkscape:export-filename="../db56cef5/menu_icon_bigger.png"
   inkscape:export-xdpi="96"
   inkscape:export-ydpi="96"
   inkscape:version="1.2.1 (8a69933317, 2022-10-28, custom)"
   xmlns:inkscape="http://www.inkscape.org/namespaces/inkscape"
   xmlns:sodipodi="http://sodipodi.sourceforge.net/DTD/sodipodi-0.dtd"
   xmlns="http://www.w3.org/2000/svg"
   xmlns:svg="http://www.w3.org/2000/svg">
  <defs
     id="defs48506" />
  <sodipodi:namedview
     id="namedview48504"
     pagecolor="#000000"
     bordercolor="#666666"
     borderopacity="1.0"
     inkscape:showpageshadow="2"
     inkscape:pageopacity="1"
     inkscape:pagecheckerboard="true"
     inkscape:deskcolor="#d1d1d1"
     showgrid="false"
     inkscape:zoom="2.8020833"
     inkscape:cx="19.806691"
     inkscape:cy="95.107807"
     inkscape:window-width="1920"
     inkscape:window-height="1052"
     inkscape:window-x="1440"
     inkscape:window-y="28"
     inkscape:window-maximized="1"
     inkscape:current-layer="svg48502" />
  <g
     id="g52055">
    <path
       id="rect49788"
       style="fill:#b50000;stroke-width:0.521884;stroke-linecap:square;stroke-linejoin:bevel;paint-order:stroke fill markers;fill-opacity:1"
       d="M 28.677452,0 H 115.32255 C 131.20986,0 144,12.790144 144,28.677452 V 115.32255 C 144,131.20986 131.20986,144 115.32255,144 H 28.677452 C 12.790144,144 0,131.20986 0,115.32255 V 28.677452 C 0,12.790144 12.790144,0 28.677452,0 Z" />
    <path
       style="fill:#ffffff;stroke:none;stroke-width:0.186503"
       d="M 71.81349,9.2417984 69.067235,27.146071 64.726382,55.121497 42.346041,42.252801 l 4.625084,8.206125 8.243612,14.174216 c -10.12095,1.88573 -20.401173,3.298116 -30.586466,4.798345 -4.988951,0.735008 -10.67822,0.956946 -15.4797356,2.475266 v 0.186502 l 17.9042726,2.718466 28.161929,4.368642 -9.217717,15.852742 -3.650979,6.527595 6.154594,-3.464473 16.225747,-9.404219 4.928151,31.705482 2.158957,14.36071 h 0.186502 c 1.519439,-4.80506 1.739699,-10.48742 2.475266,-15.47973 1.500229,-10.18473 2.912988,-20.467937 4.798345,-30.586462 l 15.666239,9.110664 6.714098,3.758028 -12.868692,-22.380337 28.161932,-4.368642 17.90427,-2.718466 V 71.906753 L 121.98275,69.840301 88.785248,64.633142 98.189467,48.407395 101.65394,42.252801 94.939842,46.056899 79.273603,55.121497 74.904961,27.146071 72.186495,9.2417984 Z"
       id="path37848" />
    <path
       style="fill:#ffffff;stroke:none;stroke-width:0.186503"
       d="m 18.287175,63.514125 c 2.307226,-0.293183 4.598041,-0.736686 6.900605,-1.068475 0.864067,-0.124584 2.356277,-0.07758 3.074872,-0.612475 0.64157,-0.477634 0.738365,-1.883679 0.964593,-2.608616 0.653692,-2.094799 1.369676,-4.184377 2.347884,-6.154593 2.913734,-5.869245 6.736296,-10.941749 11.703426,-15.239334 3.664967,-3.171108 7.878813,-5.484116 12.309188,-7.379731 1.622388,-0.694163 4.975522,-0.962354 6.202711,-2.158584 0.582262,-0.567528 0.56585,-2.058431 0.673648,-2.824772 0.33011,-2.34863 0.575735,-4.783611 1.143263,-7.087107 -1.583969,-0.263715 -3.49898,0.45488 -5.035577,0.843925 -4.052334,1.026512 -8.080982,2.46594 -11.749679,4.487445 C 32.556693,31.572902 19.635963,46.566612 18.287175,63.514125 M 80.39262,18.193935 c 0.301389,2.371756 0.792824,4.718522 1.119017,7.087108 0.113954,0.82714 0.09045,2.407938 0.697894,3.034774 0.480804,0.49647 1.463674,0.549437 2.099649,0.723631 1.452857,0.39781 2.905341,0.899503 4.289565,1.49165 4.387293,1.877524 8.481776,4.21198 12.122685,7.325458 4.93804,4.222797 8.87306,9.367105 11.70156,15.21341 0.95844,1.981219 1.66976,4.065948 2.3477,6.154593 0.23611,0.727175 0.32041,2.127625 0.96664,2.608616 0.7186,0.53489 2.21081,0.487891 3.07488,0.612475 2.30256,0.331789 4.59337,0.775292 6.9006,1.068475 -2.92455,-22.646667 -22.66103,-42.393961 -45.32019,-45.32019 z"
       id="path38490" />
    <path
       style="fill:#b50000;stroke:none;stroke-width:0.186503;fill-opacity:1"
       d="M 70.694473,63.973668 C 60.287241,65.813332 63.136258,81.70356 73.492015,79.839837 83.636091,78.013975 80.771967,62.192379 70.694473,63.973668 Z"
       id="path41068" />
    <path
       style="fill:#ffffff;stroke:none;stroke-width:0.186503"
       d="m 18.287175,80.29938 c 0.372073,4.675813 2.133406,9.558271 4.045992,13.801211 5.500901,12.202319 15.270293,21.971709 27.472988,27.472979 4.239955,1.91128 9.129127,3.67411 13.80121,4.04599 -0.418513,-2.22162 -0.779955,-4.47513 -1.094772,-6.71409 -0.13279,-0.94483 -0.07572,-2.46053 -0.642316,-3.26138 -0.45861,-0.64809 -1.837799,-0.74153 -2.552478,-0.96459 -2.0948,-0.65369 -4.184377,-1.36968 -6.154593,-2.34788 -5.90151,-2.92978 -10.916571,-6.73761 -15.264139,-11.70343 C 34.795473,97.08333 32.365714,92.84897 30.570438,88.505505 29.890822,86.861296 29.584584,83.346277 28.385557,82.116291 27.789121,81.504375 26.180534,81.52918 25.374282,81.418397 23.00924,81.093323 20.633194,80.741392 18.287175,80.29938 m 62.105445,45.32018 c 4.827626,-0.38419 9.798486,-2.25985 14.174216,-4.23249 16.219034,-7.31184 28.844154,-23.262681 31.145974,-41.08769 -2.34602,0.442012 -4.72207,0.793943 -7.08711,1.119017 -0.80625,0.110783 -2.41484,0.08598 -3.01127,0.697894 -0.50524,0.518291 -0.57331,1.615301 -0.78238,2.286152 -0.55186,1.770285 -1.15054,3.514832 -1.88107,5.222079 -1.93646,4.524559 -4.75172,8.627435 -7.99332,12.309188 -4.02287,4.56951 -9.204479,8.08676 -14.680389,10.67151 -1.859247,0.87768 -3.823495,1.52298 -5.781588,2.13359 -0.685025,0.21354 -1.942614,0.28703 -2.391899,0.90528 -0.52743,0.72606 -0.494419,2.20633 -0.616392,3.07488 -0.324329,2.30554 -0.801403,4.59094 -1.094772,6.90059 z"
       id="path41620" />
  </g>
</svg>
